# xmcd
#
# Track frame offsets: 
#        150
#        16511
#        32509
#        51427
#        65369
#        81229
#        98222
#        113406
#        129333
#        150061
#        171042
#        187848
#        204330
#        220537
#        238885
#        257045
#        279500
#
# Disc length: 3949 seconds
#
# Revision: 3
# Processed by: cddbd v1.5.2PL0 Copyright (c) Steve Scherf et al.
# Submitted via: ExactAudioCopy v1.0b3
#
DISCID=cd0f6b11
DTITLE=Blue - Guilty
DYEAR=2003
DGENRE=Pop
TTITLE0=STAND UP
TTITLE1=SIGNED, SEALED, DELIVERED I'M YOURS
TTITLE2=WHEN SUMMER'S GONE
TTITLE3=BUBBLIN'
TTITLE4=TASTE IT
TTITLE5=GUILTY
TTITLE6=ROCK THE NIGHT
TTITLE7=BACK IT UP
TTITLE8=BREATHE EASY
TTITLE9=WALK AWAY
TTITLE10=WHERE YOU WANT ME
TTITLE11=ALIVE
TTITLE12=I WANNA KNOW
TTITLE13=HOW A MAN'S SUPPOSED TO CHANGE
TTITLE14=NO GOODBYES
TTITLE15=THE GIFT
TTITLE16=ELEMENTS
EXTD=
EXTT0=
EXTT1=
EXTT2=
EXTT3=
EXTT4=
EXTT5=
EXTT6=
EXTT7=
EXTT8=
EXTT9=
EXTT10=
EXTT11=
EXTT12=
EXTT13=
EXTT14=
EXTT15=
EXTT16=
PLAYORDER=
